<svg xmlns="http://www.w3.org/2000/svg" viewBox="0 0 100 100">
  <defs>
    <linearGradient id="bg" x1="0%" y1="0%" x2="100%" y2="100%">
      <stop offset="0%" style="stop-color:#6366f1;stop-opacity:1" />
      <stop offset="100%" style="stop-color:#22d3ee;stop-opacity:1" />
    </linearGradient>
  </defs>
  <rect width="100" height="100" rx="20" fill="url(#bg)"/>
  <!-- Robot face -->
  <rect x="25" y="30" width="50" height="40" rx="8" fill="#0f0f1a" opacity="0.9"/>
  <!-- Eyes -->
  <circle cx="38" cy="48" r="5" fill="#22d3ee"/>
  <circle cx="62" cy="48" r="5" fill="#22d3ee"/>
  <!-- Candlestick chart -->
  <rect x="30" y="55" width="4" height="15" fill="#22c55e" rx="1"/>
  <rect x="38" y="50" width="4" height="20" fill="#22c55e" rx="1"/>
  <rect x="46" y="58" width="4" height="12" fill="#ef4444" rx="1"/>
  <rect x="54" y="48" width="4" height="22" fill="#22c55e" rx="1"/>
  <rect x="62" y="52" width="4" height="18" fill="#22c55e" rx="1"/>
  <!-- Lines -->
  <line x1="32" y1="55" x2="32" y2="72" stroke="#22c55e" stroke-width="1"/>
  <line x1="40" y1="45" x2="40" y2="72" stroke="#22c55e" stroke-width="1"/>
  <line x1="48" y1="56" x2="48" y2="72" stroke="#ef4444" stroke-width="1"/>
  <line x1="56" y1="44" x2="56" y2="72" stroke="#22c55e" stroke-width="1"/>
  <line x1="64" y1="48" x2="64" y2="72" stroke="#22c55e" stroke-width="1"/>
</svg>
